<svg preserveAspectRatio="none" width="100%" height="100%" overflow="visible" style="display: block;" viewBox="0 0 136 23" fill="none" xmlns="http://www.w3.org/2000/svg">
<g id="Group">
<g id="Group_2">
<path id="Vector" d="M31.6946 11.5367V11.4992C31.6946 7.813 34.3605 4.79132 38.1816 4.79132C40.528 4.79132 41.9323 5.6061 43.0875 6.79325L41.3457 8.88742C40.3855 7.9804 39.4073 7.42355 38.1636 7.42355C36.0662 7.42355 34.5555 9.23929 34.5555 11.4633V11.5009C34.5555 13.7249 36.0318 15.5765 38.1636 15.5765C39.5859 15.5765 40.4559 14.9837 41.4341 14.0579L43.1759 15.8925C41.8962 17.3188 40.474 18.2087 38.0751 18.2087C34.4129 18.207 31.6946 15.2605 31.6946 11.5367Z" fill="black"/>
<path id="Vector_2" d="M44.2836 11.5367V11.4992C44.2836 7.813 47.074 4.79132 50.9132 4.79132C54.7523 4.79132 57.5067 7.77372 57.5067 11.4616V11.4992C57.5067 15.1853 54.7162 18.207 50.8771 18.207C47.0396 18.207 44.2836 15.2246 44.2836 11.5367ZM54.6458 11.5367V11.4992C54.6458 9.27516 53.081 7.42355 50.8771 7.42355C48.6733 7.42355 47.1445 9.23929 47.1445 11.4633V11.5009C47.1445 13.7248 48.7093 15.5765 50.9132 15.5765C53.117 15.5765 54.6458 13.7607 54.6458 11.5367Z" fill="black"/>
<path id="Vector_3" d="M59.7712 5.01508H62.2946L68.1246 13.0006V5.01508H70.8266V17.9849H68.4982L62.4732 9.73977V17.9849H59.7712V5.01508Z" fill="black"/>
<path id="Vector_4" d="M73.6416 5.01508H76.1649L81.9949 13.0006V5.01508H84.6969V17.9849H82.3701L76.3452 9.73977V17.9849H73.6432V5.01508H73.6416Z" fill="black"/>
<path id="Vector_5" d="M93.6368 5.01508H103.021V7.55336H96.3552V10.1856H102.221V12.7239H96.3552V15.4483H103.109V17.9866H93.6352V5.01508H93.6368Z" fill="black"/>
<path id="Vector_6" d="M110.203 5.01508H112.941V15.3903H119.144V17.9849H110.204V5.01508H110.203Z" fill="black"/>
<path id="Vector_7" d="M125.158 12.4267V5.01508H127.894V12.3532C127.894 14.4662 128.907 15.5577 130.578 15.5577C132.249 15.5577 133.262 14.502 133.262 12.4455V5.01508H136V12.3344C136 16.2631 133.885 18.1899 130.544 18.1899C127.203 18.1899 125.158 16.2426 125.158 12.4267Z" fill="black"/>
</g>
<path id="Vector_8" d="M1.12241 0H0V23H1.12241V0Z" fill="#3D5AFE"/>
<path id="Vector_9" d="M5.6104 0H4.48799V23H5.6104V0Z" fill="#3D5AFE"/>
<path id="Vector_10" d="M11.2175 0H8.97435V23H11.2175V0Z" fill="#3D5AFE"/>
<path id="Vector_11" d="M13.4623 0H12.3399V23H13.4623V0Z" fill="#3D5AFE"/>
<path id="Vector_12" d="M89.2881 5.00994H87.0449V17.99H89.2881V5.00994Z" fill="#3D5AFE"/>
<path id="Vector_13" d="M91.5313 5.00994H90.4089V17.99H91.5313V5.00994Z" fill="#3D5AFE"/>
<path id="Vector_14" d="M19.0695 0H16.8263V23H19.0695V0Z" fill="#3D5AFE"/>
<path id="Vector_15" d="M23.5575 0H20.1919V23H23.5575V0Z" fill="#3D5AFE"/>
<path id="Vector_16" d="M122.892 5.00994H121.151V17.99H122.892V5.00994Z" fill="#3D5AFE"/>
</g>
</svg>
